<svg width="25" height="25" viewBox="0 0 25 25" fill="none" xmlns="http://www.w3.org/2000/svg">
<path d="M21.7708 2.08301H3.22909C2.92519 2.08301 2.63374 2.20373 2.41886 2.41861C2.20397 2.6335 2.08325 2.92495 2.08325 3.22884V21.7705C2.08325 21.921 2.11289 22.07 2.17047 22.209C2.22806 22.348 2.31246 22.4743 2.41886 22.5807C2.52526 22.6871 2.65158 22.7715 2.79059 22.8291C2.92961 22.8867 3.07861 22.9163 3.22909 22.9163H13.2083V14.8434H10.4999V11.7184H13.2083V9.37467C13.1521 8.82442 13.2171 8.26856 13.3986 7.74607C13.58 7.22358 13.8736 6.74712 14.2587 6.3501C14.6438 5.95309 15.1111 5.64513 15.6279 5.44784C16.1446 5.25054 16.6982 5.16869 17.2499 5.20801C18.0607 5.20302 18.871 5.24475 19.677 5.33301V8.14551H18.0208C16.7083 8.14551 16.4583 8.77051 16.4583 9.67676V11.6872H19.5833L19.177 14.8122H16.4583V22.9163H21.7708C21.9212 22.9163 22.0702 22.8867 22.2092 22.8291C22.3483 22.7715 22.4746 22.6871 22.581 22.5807C22.6874 22.4743 22.7718 22.348 22.8294 22.209C22.8869 22.07 22.9166 21.921 22.9166 21.7705V3.22884C22.9166 3.07837 22.8869 2.92937 22.8294 2.79035C22.7718 2.65133 22.6874 2.52502 22.581 2.41861C22.4746 2.31221 22.3483 2.22781 22.2092 2.17023C22.0702 2.11265 21.9212 2.08301 21.7708 2.08301Z" fill="white"/>
</svg>
