<svg width="21" height="21" viewBox="0 0 21 21" fill="none" xmlns="http://www.w3.org/2000/svg">
<path d="M10.4999 7.91634C9.98898 7.91634 9.48952 8.06785 9.0647 8.35171C8.63987 8.63557 8.30876 9.03903 8.11323 9.51108C7.9177 9.98312 7.86654 10.5025 7.96622 11.0037C8.0659 11.5048 8.31194 11.9651 8.67323 12.3264C9.03451 12.6877 9.49482 12.9337 9.99594 13.0334C10.4971 13.133 11.0165 13.0819 11.4885 12.8864C11.9606 12.6908 12.364 12.3597 12.6479 11.9349C12.9317 11.5101 13.0833 11.0106 13.0833 10.4997C13.0833 10.1604 13.0164 9.8245 12.8866 9.51108C12.7568 9.19765 12.5665 8.91287 12.3266 8.67298C12.0867 8.4331 11.8019 8.24281 11.4885 8.11298C11.1751 7.98316 10.8392 7.91634 10.4999 7.91634ZM20.8437 5.36426C20.8382 4.55984 20.6901 3.76277 20.4062 3.01009C20.1971 2.45932 19.8736 1.95915 19.457 1.54258C19.0404 1.126 18.5403 0.802505 17.9895 0.593424C17.2368 0.309533 16.4398 0.161405 15.6353 0.155924C14.2916 0.0830077 13.8958 0.0830078 10.4999 0.0830078C7.10408 0.0830078 6.70825 0.0830077 5.3645 0.155924C4.56008 0.161405 3.76301 0.309533 3.01034 0.593424C2.45956 0.802505 1.95939 1.126 1.54282 1.54258C1.12625 1.95915 0.802749 2.45932 0.593669 3.01009C0.309777 3.76277 0.161649 4.55984 0.156169 5.36426C0.0832519 6.70801 0.083252 7.10384 0.083252 10.4997C0.083252 13.8955 0.0832519 14.2913 0.156169 15.6351C0.167381 16.4423 0.315309 17.2419 0.593669 17.9997C0.801823 18.5479 1.12505 19.0452 1.54159 19.458C1.95637 19.8771 2.45762 20.2006 3.01034 20.4059C3.76301 20.6898 4.56008 20.8379 5.3645 20.8434C6.70825 20.9163 7.10408 20.9163 10.4999 20.9163C13.8958 20.9163 14.2916 20.9163 15.6353 20.8434C16.4398 20.8379 17.2368 20.6898 17.9895 20.4059C18.5422 20.2006 19.0435 19.8771 19.4583 19.458C19.8748 19.0452 20.198 18.5479 20.4062 17.9997C20.6898 17.2433 20.8379 16.4429 20.8437 15.6351C20.9166 14.2913 20.9166 13.8955 20.9166 10.4997C20.9166 7.10384 20.9166 6.70801 20.8437 5.36426ZM18.1978 13.6976C18.1644 14.3404 18.0272 14.9736 17.7916 15.5726C17.5894 16.0723 17.2887 16.5262 16.9076 16.9073C16.5264 17.2885 16.0725 17.5891 15.5728 17.7913C14.9682 18.0138 14.3314 18.137 13.6874 18.1559C12.8645 18.1559 12.6458 18.1559 10.4999 18.1559C8.35408 18.1559 8.13533 18.1559 7.31242 18.1559C6.66839 18.137 6.03168 18.0138 5.427 17.7913C4.91044 17.5994 4.44396 17.2931 4.06242 16.8955C3.68499 16.5218 3.39351 16.0704 3.20825 15.5726C2.98487 14.9685 2.86513 14.3311 2.85408 13.6872C2.85408 12.8643 2.85408 12.6455 2.85408 10.4997C2.85408 8.35384 2.85408 8.13509 2.85408 7.31217C2.86513 6.66824 2.98487 6.0308 3.20825 5.42676C3.40021 4.9102 3.70645 4.44371 4.10409 4.06217C4.47943 3.68678 4.9304 3.39561 5.427 3.20801C6.03168 2.98551 6.66839 2.86239 7.31242 2.84342C8.13533 2.84342 8.35408 2.84342 10.4999 2.84342C12.6458 2.84342 12.8645 2.84342 13.6874 2.84342C14.3314 2.86239 14.9682 2.98551 15.5728 3.20801C16.0894 3.39997 16.5559 3.70621 16.9374 4.10384C17.3148 4.47754 17.6063 4.92898 17.7916 5.42676C18.0141 6.03143 18.1372 6.66814 18.1562 7.31217C18.1562 8.13509 18.1562 8.35384 18.1562 10.4997C18.1562 12.6455 18.2291 12.8643 18.1978 13.6872V13.6976ZM16.5312 5.94759C16.4071 5.61112 16.2116 5.30555 15.958 5.05198C15.7045 4.79841 15.3989 4.60286 15.0624 4.47884C14.6004 4.3187 14.1138 4.24112 13.6249 4.24967C12.8124 4.24967 12.5833 4.24967 10.4999 4.24967C8.41658 4.24967 8.18742 4.24967 7.37492 4.24967C6.88353 4.25448 6.39686 4.34617 5.93742 4.52051C5.60609 4.6389 5.30377 4.82646 5.05053 5.07072C4.79729 5.31498 4.59894 5.61034 4.46867 5.93717C4.31739 6.4011 4.24349 6.88675 4.24992 7.37467C4.24992 8.18717 4.24992 8.41634 4.24992 10.4997C4.24992 12.583 4.24992 12.8122 4.24992 13.6247C4.26025 14.1155 4.35176 14.6012 4.52075 15.0622C4.64478 15.3986 4.84032 15.7042 5.09389 15.9578C5.34746 16.2114 5.65303 16.4069 5.9895 16.5309C6.43395 16.6944 6.90164 16.7858 7.37492 16.8018C8.18742 16.8018 8.41658 16.8018 10.4999 16.8018C12.5833 16.8018 12.8124 16.8018 13.6249 16.8018C14.1163 16.797 14.603 16.7053 15.0624 16.5309C15.3989 16.4069 15.7045 16.2114 15.958 15.9578C16.2116 15.7042 16.4071 15.3986 16.5312 15.0622C16.7055 14.6027 16.7972 14.1161 16.802 13.6247C16.802 12.8122 16.802 12.583 16.802 10.4997C16.802 8.41634 16.802 8.18717 16.802 7.37467C16.8023 6.8828 16.7104 6.39522 16.5312 5.93717V5.94759ZM10.4999 14.4788C9.97786 14.4788 9.46092 14.3758 8.97873 14.1757C8.49654 13.9756 8.05857 13.6824 7.6899 13.3127C7.32123 12.9431 7.02911 12.5044 6.83028 12.0216C6.63144 11.5389 6.5298 11.0217 6.53117 10.4997C6.53117 9.71223 6.76481 8.94248 7.20251 8.28789C7.64021 7.63329 8.26229 7.12328 8.98999 6.82242C9.71769 6.52155 10.5183 6.44336 11.2905 6.59775C12.0626 6.75213 12.7716 7.13214 13.3277 7.68968C13.8838 8.24722 14.262 8.95721 14.4143 9.72978C14.5667 10.5023 14.4864 11.3028 14.1836 12.0297C13.8808 12.7566 13.3692 13.3773 12.7135 13.8133C12.0577 14.2493 11.2874 14.4809 10.4999 14.4788ZM14.6666 7.30176C14.4363 7.27738 14.2232 7.16865 14.0683 6.99652C13.9135 6.82438 13.8278 6.60102 13.8278 6.36947C13.8278 6.13791 13.9135 5.91455 14.0683 5.74241C14.2232 5.57028 14.4363 5.46155 14.6666 5.43717C14.8969 5.46155 15.11 5.57028 15.2648 5.74241C15.4197 5.91455 15.5054 6.13791 15.5054 6.36947C15.5054 6.60102 15.4197 6.82438 15.2648 6.99652C15.11 7.16865 14.8969 7.27738 14.6666 7.30176Z" fill="white"/>
</svg>
