<svg width="21" height="21" viewBox="0 0 21 21" fill="none" xmlns="http://www.w3.org/2000/svg">
<path d="M19.3228 0.0831535H1.677C1.47865 0.0803987 1.28169 0.116745 1.09738 0.190116C0.913075 0.263487 0.745026 0.372446 0.602833 0.51077C0.460639 0.649094 0.347087 0.814075 0.26866 0.996288C0.190234 1.1785 0.148469 1.37438 0.145752 1.57274V19.4269C0.148469 19.6253 0.190234 19.8211 0.26866 20.0033C0.347087 20.1856 0.460639 20.3505 0.602833 20.4889C0.745026 20.6272 0.913075 20.7362 1.09738 20.8095C1.28169 20.8829 1.47865 20.9192 1.677 20.9165H19.3228C19.5212 20.9192 19.7181 20.8829 19.9025 20.8095C20.0868 20.7362 20.2548 20.6272 20.397 20.4889C20.5392 20.3505 20.6528 20.1856 20.7312 20.0033C20.8096 19.8211 20.8514 19.6253 20.8541 19.4269V1.57274C20.8514 1.37438 20.8096 1.1785 20.7312 0.996288C20.6528 0.814075 20.5392 0.649094 20.397 0.51077C20.2548 0.372446 20.0868 0.263487 19.9025 0.190116C19.7181 0.116745 19.5212 0.0803987 19.3228 0.0831535ZM6.427 17.5207H3.302V8.14565H6.427V17.5207ZM4.8645 6.83315C4.43353 6.83315 4.0202 6.66195 3.71545 6.3572C3.41071 6.05245 3.2395 5.63913 3.2395 5.20815C3.2395 4.77718 3.41071 4.36385 3.71545 4.0591C4.0202 3.75436 4.43353 3.58315 4.8645 3.58315C5.09335 3.5572 5.3251 3.57988 5.54458 3.6497C5.76406 3.71952 5.96631 3.83491 6.1381 3.98832C6.30989 4.14173 6.44734 4.32969 6.54145 4.53991C6.63556 4.75012 6.68421 4.97784 6.68421 5.20815C6.68421 5.43847 6.63556 5.66619 6.54145 5.8764C6.44734 6.08661 6.30989 6.27458 6.1381 6.42799C5.96631 6.58139 5.76406 6.69679 5.54458 6.76661C5.3251 6.83643 5.09335 6.85911 4.8645 6.83315ZM17.6978 17.5207H14.5728V12.4894C14.5728 11.229 14.1249 10.4061 12.9895 10.4061C12.6381 10.4086 12.2959 10.5189 12.0091 10.7219C11.7223 10.9249 11.5046 11.2109 11.3853 11.5415C11.3038 11.7863 11.2685 12.0442 11.2812 12.3019V17.5102H8.15617C8.15617 17.5102 8.15617 8.9894 8.15617 8.13524H11.2812V9.45815C11.5651 8.96556 11.9779 8.55974 12.4754 8.28441C12.9728 8.00907 13.5359 7.87467 14.1041 7.89565C16.1874 7.89565 17.6978 9.2394 17.6978 12.1248V17.5207Z" fill="white"/>
</svg>
