<svg width="25" height="25" viewBox="0 0 25 25" fill="none" xmlns="http://www.w3.org/2000/svg">
<path d="M22.9166 6.04164C22.1336 6.38132 21.3056 6.60587 20.4583 6.70831C21.3522 6.17427 22.0221 5.33412 22.3437 4.34372C21.5036 4.84379 20.584 5.19612 19.6249 5.38539C18.9838 4.69015 18.1301 4.22737 17.1976 4.06961C16.2652 3.91186 15.3067 4.06806 14.4726 4.51371C13.6385 4.95937 12.9759 5.66928 12.5887 6.5321C12.2015 7.39491 12.1117 8.36184 12.3333 9.28122C10.6347 9.19531 8.97329 8.75305 7.45685 7.98316C5.94041 7.21328 4.60288 6.13299 3.53117 4.81247C3.15527 5.4689 2.95775 6.21229 2.95825 6.96872C2.95692 7.67121 3.12931 8.36312 3.46008 8.98285C3.79085 9.60259 4.26973 10.1309 4.85408 10.5208C4.17489 10.5023 3.51022 10.3201 2.91659 9.98956V10.0416C2.92168 11.0259 3.26658 11.9782 3.89295 12.7374C4.51933 13.4967 5.38873 14.0163 6.35408 14.2083C5.98248 14.3214 5.59666 14.381 5.20825 14.3854C4.93939 14.3823 4.67119 14.3579 4.40617 14.3125C4.68107 15.1592 5.21307 15.8991 5.92812 16.4293C6.64318 16.9595 7.50573 17.2537 8.39575 17.2708C6.89284 18.4534 5.0373 19.0988 3.12492 19.1041C2.77673 19.1053 2.42881 19.0844 2.08325 19.0416C4.03578 20.3023 6.31118 20.9716 8.63533 20.9687C10.2392 20.9854 11.8303 20.6823 13.3157 20.0771C14.8011 19.472 16.151 18.5769 17.2866 17.4442C18.4222 16.3115 19.3207 14.9639 19.9297 13.4801C20.5386 11.9962 20.8458 10.4059 20.8333 8.80206C20.8333 8.62497 20.8333 8.43747 20.8333 8.24997C21.6506 7.6404 22.3556 6.89313 22.9166 6.04164Z" fill="white"/>
</svg>
