<svg width="23" height="17" viewBox="0 0 23 17" fill="none" xmlns="http://www.w3.org/2000/svg">
<path d="M22.9583 6.11438C23.0098 4.6234 22.6838 3.14357 22.0104 1.8123C21.5535 1.26605 20.9195 0.897415 20.2187 0.770634C17.3203 0.507639 14.4099 0.399846 11.5 0.447717C8.60066 0.397674 5.70073 0.501988 2.81249 0.760217C2.24147 0.864089 1.71303 1.13193 1.29165 1.53105C0.354154 2.39563 0.249987 3.8748 0.145821 5.1248C-0.00531261 7.37226 -0.00531261 9.62734 0.145821 11.8748C0.175956 12.5783 0.28071 13.2767 0.458321 13.9581C0.58392 14.4842 0.838032 14.971 1.1979 15.3748C1.62214 15.7951 2.16289 16.0781 2.74999 16.1873C4.99573 16.4645 7.25855 16.5794 9.52082 16.531C13.1667 16.5831 16.3646 16.5311 20.1458 16.2394C20.7473 16.1369 21.3033 15.8535 21.7396 15.4269C22.0312 15.1351 22.249 14.778 22.375 14.3852C22.7475 13.2421 22.9305 12.0457 22.9167 10.8436C22.9583 10.2602 22.9583 6.73938 22.9583 6.11438ZM9.14582 11.4686V5.02063L15.3125 8.26022C13.5833 9.21855 11.3021 10.3019 9.14582 11.4686Z" fill="white"/>
</svg>
