<svg width="42" height="42" viewBox="0 0 42 42" fill="none" xmlns="http://www.w3.org/2000/svg">
                            <path fillRule="evenodd" clipRule="evenodd"
                                d="M40.6875 10.5C40.6875 9.45525 40.2728 8.45381 39.5338 7.71619C38.7962 6.97725 37.7948 6.5625 36.75 6.5625C29.9854 6.5625 12.0146 6.5625 5.25 6.5625C4.20525 6.5625 3.20381 6.97725 2.46619 7.71619C1.72725 8.45381 1.3125 9.45525 1.3125 10.5C1.3125 15.5295 1.3125 26.4705 1.3125 31.5C1.3125 32.5448 1.72725 33.5462 2.46619 34.2838C3.20381 35.0228 4.20525 35.4375 5.25 35.4375C12.0146 35.4375 29.9854 35.4375 36.75 35.4375C37.7948 35.4375 38.7962 35.0228 39.5338 34.2838C40.2728 33.5462 40.6875 32.5448 40.6875 31.5V10.5ZM38.0625 10.5V31.5C38.0625 31.8478 37.9247 32.1825 37.6779 32.4279C37.4325 32.6747 37.0978 32.8125 36.75 32.8125H5.25C4.90219 32.8125 4.5675 32.6747 4.32206 32.4279C4.07531 32.1825 3.9375 31.8478 3.9375 31.5V10.5C3.9375 10.1522 4.07531 9.8175 4.32206 9.57206C4.5675 9.32531 4.90219 9.1875 5.25 9.1875H36.75C37.0978 9.1875 37.4325 9.32531 37.6779 9.57206C37.9247 9.8175 38.0625 10.1522 38.0625 10.5Z"
                                fill="white" />
                            <path fillRule="evenodd" clipRule="evenodd"
                                d="M12.2446 16.1097L8.25989 20.0945C7.7467 20.6077 7.7467 21.4385 8.25989 21.9517L12.1843 25.876C12.6961 26.3879 13.5283 26.3879 14.0401 25.876C14.5533 25.3642 14.5533 24.5321 14.0401 24.0202L11.0437 21.0237L14.1018 17.9656C14.6137 17.4537 14.6137 16.6216 14.1018 16.1097C13.5886 15.5979 12.7578 15.5979 12.2446 16.1097ZM29.8978 25.859L33.7906 21.9661C34.3038 21.4529 34.3038 20.6221 33.7906 20.1102L29.8033 16.1215C29.2914 15.6097 28.4593 15.6097 27.9474 16.1215C27.4355 16.6347 27.4355 17.4655 27.9474 17.9774L31.0068 21.0382L28.0419 24.0018C27.53 24.515 27.53 25.3458 28.0419 25.859C28.5538 26.3709 29.3859 26.3709 29.8978 25.859ZM21.5253 15.2868L18.0052 25.8459C17.7755 26.5323 18.1483 27.2765 18.8347 27.5062C19.5225 27.7346 20.2666 27.3631 20.495 26.6754L24.0151 16.1163C24.2448 15.4299 23.8721 14.6857 23.1856 14.456C22.4979 14.2276 21.7537 14.5991 21.5253 15.2868Z"
                                fill="white" />
                        </svg>