<svg width="42" height="42" viewBox="0 0 42 42" fill="none" xmlns="http://www.w3.org/2000/svg">
    <path d="M25.375 19.214L21.875 17.1922C21.3332 16.8812 20.6668 16.8812 20.125 17.1922L16.625 19.214C16.0832 19.5267 15.75 20.1044 15.75 20.7298V24.7699C15.75 25.3953 16.0832 25.973 16.625 26.2857L20.125 28.3075C20.3959 28.4631 20.6974 28.5417 21 28.5417C21.3026 28.5417 21.6041 28.4631 21.875 28.3075L25.375 26.2857C25.9168 25.973 26.25 25.3953 26.25 24.7699V20.7298C26.25 20.1044 25.9168 19.5267 25.375 19.214ZM22.75 23.7598L21 24.7697L19.25 23.7598V21.7398L21 20.7298L22.75 21.7398V23.7598Z" fill="white"/>
    <path d="M28 3.5H14C10.1402 3.5 7 6.63932 7 10.5V31.5C7 35.3607 10.1402 38.5 14 38.5H28C31.8598 38.5 35 35.3607 35 31.5V10.5C35 6.63932 31.8598 3.5 28 3.5ZM31.5 31.5C31.5 33.4294 29.9303 35 28 35H14C12.0698 35 10.5 33.4294 10.5 31.5V10.5C10.5 8.57063 12.0698 7 14 7H28C29.9303 7 31.5 8.57063 31.5 10.5V21V31.5Z" fill="white"/>
    <path d="M19.25 12.25H22.75C23.7164 12.25 24.5 11.4672 24.5 10.5C24.5 9.53278 23.7164 8.75 22.75 8.75H19.25C18.2836 8.75 17.5 9.53278 17.5 10.5C17.5 11.4672 18.2836 12.25 19.25 12.25Z" fill="white"/>
    </svg>