<svg width="42" height="42" viewBox="0 0 42 42" fill="none" xmlns="http://www.w3.org/2000/svg">
                        <path
                            d="M24.5236 39H17.4764L16.4455 33.8564C15.9962 33.6978 15.5556 33.5158 15.1255 33.3109L10.7618 36.2236L5.78182 31.2382L8.69455 26.8745C8.4897 26.4444 8.30763 26.0038 8.14909 25.5545L3 24.5236V17.4764L8.14364 16.4455C8.30218 15.9962 8.48425 15.5556 8.68909 15.1255L5.77636 10.7618L10.7618 5.77636L15.1255 8.68909C15.5556 8.48425 15.9962 8.30218 16.4455 8.14364L17.4764 3H24.5236L25.5545 8.14364C26.0038 8.30218 26.4444 8.48425 26.8745 8.68909L31.2382 5.77636L36.2236 10.7618L33.3109 15.1255C33.5158 15.5556 33.6978 15.9962 33.8564 16.4455L39 17.4764V24.5236L33.8564 25.5545C33.6978 26.0038 33.5158 26.4444 33.3109 26.8745L36.2236 31.2382L31.2382 36.2182L26.8745 33.3055C26.4444 33.5103 26.0038 33.6924 25.5545 33.8509L24.5236 39ZM20.16 35.7273H21.84L22.7291 31.2655C24.2634 30.9479 25.7236 30.3427 27.0327 29.4818L30.8182 32.0073L32.0073 30.8182L29.4818 27.0327C30.343 25.7238 30.9482 24.2635 31.2655 22.7291L35.7273 21.84V20.16L31.2655 19.2709C30.9479 17.7366 30.3427 16.2764 29.4818 14.9673L32.0073 11.1818L30.8182 9.99273L27.0327 12.5182C25.7238 11.657 24.2635 11.0518 22.7291 10.7345L21.84 6.27273H20.16L19.2709 10.7345C17.7366 11.0521 16.2764 11.6573 14.9673 12.5182L11.1818 9.99273L9.99273 11.1818L12.5182 14.9673C11.657 16.2762 11.0518 17.7365 10.7345 19.2709L6.27273 20.16V21.84L10.7345 22.7291C11.0521 24.2634 11.6573 25.7236 12.5182 27.0327L9.99273 30.8182L11.1818 32.0073L14.9673 29.4818C16.2762 30.343 17.7365 30.9482 19.2709 31.2655L20.16 35.7273Z"
                            fill="white" />
                        <path
                            d="M21 27C19.8133 27 18.6533 26.6481 17.6666 25.9888C16.6799 25.3295 15.9109 24.3925 15.4567 23.2961C15.0026 22.1997 14.8838 20.9933 15.1153 19.8295C15.3468 18.6656 15.9182 17.5965 16.7574 16.7574C17.5965 15.9182 18.6656 15.3468 19.8295 15.1153C20.9933 14.8838 22.1997 15.0026 23.2961 15.4567C24.3925 15.9109 25.3295 16.6799 25.9888 17.6666C26.6481 18.6533 27 19.8133 27 21C27 22.5913 26.3679 24.1174 25.2426 25.2426C24.1174 26.3679 22.5913 27 21 27ZM21 18.2727C20.4606 18.2727 19.9333 18.4327 19.4848 18.7324C19.0363 19.032 18.6868 19.458 18.4803 19.9563C18.2739 20.4547 18.2199 21.003 18.3251 21.5321C18.4304 22.0611 18.6901 22.5471 19.0715 22.9285C19.4529 23.3099 19.9389 23.5696 20.4679 23.6749C20.997 23.7801 21.5453 23.7261 22.0437 23.5197C22.542 23.3133 22.968 22.9637 23.2676 22.5152C23.5673 22.0667 23.7273 21.5394 23.7273 21C23.7273 20.2767 23.4399 19.583 22.9285 19.0715C22.417 18.5601 21.7233 18.2727 21 18.2727Z"
                            fill="white" />
                    </svg>